<svg width="40" height="40" viewBox="0 0 40 40" fill="none" xmlns="http://www.w3.org/2000/svg">
<path d="M12.3522 10.2123C16.3829 10.2123 19.6518 7.92605 19.6518 5.10577C19.6518 2.28595 16.3829 0 12.3522 0C8.32171 0 5.05298 2.28595 5.05298 5.10586C5.05311 7.92605 8.32184 10.2123 12.3522 10.2123Z" fill="black"/>
<path d="M14.5365 11.1699C13.8574 10.9901 13.1214 10.8909 12.3524 10.8909C11.5825 10.8909 10.8458 10.9902 10.1663 11.1702C8.25403 11.576 1.04825 13.7396 0.00667485 23.4234C-0.0895973 24.3156 0.866875 25.0934 2.14235 25.1604C2.20139 25.1636 2.26016 25.1652 2.31854 25.1652C3.51875 25.1652 4.53386 24.5173 4.62548 23.6662C4.86297 21.4589 5.44499 19.7635 6.1762 18.4633V23.4514C6.1762 23.7915 6.23378 24.1224 6.34003 24.4398V38.1096C6.34003 39.1538 7.55021 39.9999 9.04216 39.9999C10.5348 39.9999 11.7443 39.1537 11.7443 38.1096V27.7514C11.9444 27.765 12.1468 27.7721 12.3521 27.7721C12.5572 27.7721 12.7601 27.765 12.9603 27.7514V38.1097C12.9603 39.1539 14.17 40 15.6621 40C17.1546 40 18.3642 39.1538 18.3642 38.1097V24.4387C18.4702 24.1214 18.5282 23.7913 18.5282 23.4515V18.4628C19.2594 19.7632 19.8411 21.4586 20.0785 23.6663C20.17 24.5175 21.1856 25.1654 22.3858 25.1654C22.4441 25.1654 22.5028 25.1637 22.5619 25.1606C23.8375 25.0936 24.7934 24.3159 24.6977 23.4235C23.6569 13.7357 16.4453 11.5743 14.5365 11.1699Z" fill="black"/>
<path d="M32.3987 23.8626C34.8789 23.8626 36.8905 22.4556 36.8905 20.7203C36.8905 18.9849 34.8789 17.5781 32.3987 17.5781C29.9178 17.5781 27.9067 18.9849 27.9067 20.7203C27.9067 22.4556 29.9178 23.8626 32.3987 23.8626Z" fill="black"/>
<path d="M39.9959 31.9922C39.3555 26.0365 34.9253 24.7032 33.7462 24.4526C33.3269 24.3413 32.8734 24.2798 32.3988 24.2798C31.9246 24.2798 31.4713 24.3412 31.0527 24.4523C29.8754 24.7019 25.4421 26.0337 24.8011 31.9922C24.7417 32.5412 25.3302 33.0199 26.115 33.0612C26.1515 33.0631 26.1875 33.0642 26.2235 33.0642C26.9623 33.0642 27.5872 32.6657 27.6436 32.142C27.7896 30.7832 28.1477 29.7398 28.598 28.9395V31.161C28.598 31.3698 28.6333 31.5727 28.6986 31.7677V38.4802C28.6986 39.1226 29.4428 39.6433 30.3611 39.6433C31.2796 39.6433 32.0242 39.1226 32.0242 38.4802V33.8069C32.1473 33.8156 32.2723 33.82 32.3985 33.82C32.5247 33.82 32.6496 33.8156 32.7726 33.807V38.4802C32.7726 39.1226 33.5172 39.6433 34.4355 39.6433C35.3534 39.6433 36.0981 39.1226 36.0981 38.4802V31.7687C36.1635 31.5736 36.1989 31.3703 36.1989 31.161V28.9496C36.6489 29.7488 37.0076 30.7892 37.1531 32.142C37.2093 32.6656 37.8343 33.0642 38.5731 33.0642C38.6086 33.0642 38.6449 33.0631 38.6812 33.0612C39.4663 33.0199 40.055 32.5412 39.9959 31.9922Z" fill="black"/>
</svg>
