<?xml version="1.0" encoding="iso-8859-1"?>
<!-- Generator: Adobe Illustrator 23.0.3, SVG Export Plug-In . SVG Version: 6.00 Build 0)  -->
<svg xmlns="http://www.w3.org/2000/svg" xmlns:xlink="http://www.w3.org/1999/xlink" version="1.1" id="Layer_1" x="0px" y="0px" viewBox="0 0 40 40" style="enable-background:new 0 0 40 40;" xml:space="preserve" width="30px" height="30px">
<circle style="fill:#8BB7F0;" cx="20" cy="20" r="19"/>
<g>
	<path style="fill:#FFFFFF;" d="M38.892,22.007c0.003-0.027,0.008-0.053,0.011-0.08C38.9,21.953,38.895,21.98,38.892,22.007z"/>
	<path style="fill:#FFFFFF;" d="M1.097,21.92c0.004,0.036,0.01,0.072,0.014,0.108C1.108,21.992,1.1,21.956,1.097,21.92z"/>
	<path style="fill:#FFFFFF;" d="M22.572,25.036h4.917l0.772-4.995h-5.69v-2.73c0-2.075,0.678-3.915,2.619-3.915h3.119v-4.36   C27.762,8.963,26.604,8.8,24.414,8.8c-4.573,0-7.254,2.415-7.254,7.917v3.323h-4.701v4.995h4.701v13.402   c0.929,0.14,1.872,0.235,2.84,0.235c0.875,0,1.729-0.08,2.572-0.194V25.036z"/>
</g>
<g>
	<path style="fill:#4E7AB5;" d="M20,2c9.925,0,18,8.075,18,18s-8.075,18-18,18S2,29.925,2,20S10.075,2,20,2 M20,1   C9.507,1,1,9.507,1,20s8.507,19,19,19s19-8.507,19-19S30.493,1,20,1L20,1z"/>
</g>
</svg>
