<svg width="40" height="50" viewBox="0 0 40 50" fill="none" xmlns="http://www.w3.org/2000/svg">
<path d="M20 0C8.95432 0 0 8.20812 0 18.3333C0 28.185 18.5109 48.8242 19.2991 49.6975C19.4718 49.8891 19.7289 50 20 50C20.2711 50 20.5282 49.8891 20.7009 49.6975C21.4891 48.8242 40 28.185 40 18.3333C40 8.20812 31.0457 0 20 0ZM20 47.8425C16.5791 43.9283 1.81818 26.56 1.81818 18.3333C1.82966 9.13292 9.9633 1.67719 20 1.66667C30.0368 1.67719 38.1703 9.13292 38.1818 18.3333C38.1818 26.5583 23.4209 43.9275 20 47.8425Z" fill="white"/>
<path d="M32.3728 15.1723L20.5546 6.83898C20.2276 6.60836 19.7724 6.60836 19.4455 6.83898L7.62729 15.1723C7.22968 15.4533 7.15581 15.9766 7.46229 16.3411C7.63434 16.5457 7.90002 16.6656 8.18184 16.6657H10.9091V25.8323C10.9091 26.2925 11.3162 26.6657 11.8182 26.6657H28.1819C28.6839 26.6657 29.0909 26.2925 29.0909 25.8323V16.6657H31.8182C32.3203 16.6655 32.7271 16.2921 32.7269 15.8319C32.7267 15.5736 32.5959 15.33 32.3728 15.1723ZM21.8182 24.999H18.1818V19.999H21.8182V24.999ZM28.1819 14.999C27.6798 14.999 27.2728 15.3721 27.2728 15.8323V24.999H23.6364V19.1657C23.6364 18.7055 23.2293 18.3323 22.7273 18.3323H17.2728C16.7707 18.3323 16.3637 18.7055 16.3637 19.1657V24.999H12.7273V15.8323C12.7273 15.3721 12.3202 14.999 11.8182 14.999H10.8546L20 8.55065L29.1455 14.999H28.1819Z" fill="white"/>
</svg>
