<svg width="40" height="40" viewBox="0 0 40 40" fill="none" xmlns="http://www.w3.org/2000/svg">
<path d="M20 0C8.972 0 0 8.972 0 20C0 31.028 8.972 40 20 40C31.028 40 40 31.028 40 20C40 8.972 31.028 0 20 0ZM30.4707 9.62933L18.9433 32.884C18.83 33.114 18.596 33.2547 18.346 33.2547C18.3087 33.2547 18.2713 33.2513 18.2333 33.2447C17.9427 33.1953 17.7193 32.96 17.684 32.668L16.478 22.7013L5.92333 20.932C5.634 20.884 5.41067 20.6527 5.37267 20.3627C5.33467 20.0727 5.48933 19.7913 5.75533 19.6687L29.596 8.72733C29.8513 8.60933 30.156 8.66667 30.3527 8.86933C30.5493 9.072 30.5967 9.376 30.4707 9.62933Z" fill="white"/>
</svg>
