<svg width="40" height="40" viewBox="0 0 40 40" fill="none" xmlns="http://www.w3.org/2000/svg">
<path d="M20 0C8.97196 0 0 8.97196 0 20C0 31.028 8.97196 40 20 40C31.028 40 40 31.028 40 20C40 8.97196 31.028 0 20 0ZM36.9752 20C36.9752 24.1366 35.4871 27.9318 33.0191 30.8801L28.1256 25.9868C29.993 25.2089 31.1654 23.021 30.8284 20.6671C30.6633 19.5091 30.1413 18.2469 29.3689 17.2965H23.8704C23.1717 18.1551 22.6796 19.2687 22.4687 20.3297L21.4708 19.332V17.7358C21.4708 15.9757 20.4307 14.4553 18.9331 13.7545V7.82063C19.0522 7.66291 19.1241 7.46771 19.1241 7.25453V7.15992C19.1241 6.64087 18.7027 6.21986 18.183 6.21986H15.9721C15.4527 6.21986 15.031 6.64087 15.031 7.15992V7.25453C15.031 7.46784 15.1026 7.66291 15.222 7.82063V13.0833L9.11961 6.9813C12.0679 4.51314 15.8632 3.02495 20 3.02495C29.3601 3.02495 36.9752 10.6399 36.9752 20ZM27.661 29.9261V29.7998L27.7871 29.9261H27.661ZM3.02495 20C3.02495 15.8635 4.51301 12.0683 6.98079 9.12012L13.3208 15.4598C12.917 16.1241 12.6843 16.9033 12.6843 17.736V31.1685C12.6843 31.473 12.9311 31.7199 13.2348 31.7199H20.9199C21.224 31.7199 21.4707 31.473 21.4707 31.1685V23.6098L25.5783 27.7172V29.9261H24.7556C24.4574 29.9261 24.2157 30.1678 24.2157 30.466V31.1957C24.2157 31.4939 24.4574 31.7357 24.7556 31.7357H28.4827C28.781 31.7357 29.0226 31.4939 29.0226 31.1957V31.1615L30.88 33.019C27.9319 35.4871 24.1368 36.9752 20 36.9752C10.6399 36.9752 3.02495 29.3601 3.02495 20Z" fill="black"/>
</svg>
