<svg width="41" height="41" viewBox="0 0 41 41" fill="none" xmlns="http://www.w3.org/2000/svg">
<path d="M20.5991 13.2892C19.5612 13.2892 18.8767 13.3867 18.4823 13.485V19.9963C18.9328 20.0947 19.4615 20.1269 20.1976 20.1269C22.9081 20.1269 24.5807 18.7846 24.5807 16.5283C24.5816 14.4992 23.1413 13.2892 20.5991 13.2892Z" fill="white"/>
<path d="M36.1168 0.248779H5.80594C3.12931 0.248779 0.960938 2.37022 0.960938 4.98697V35.5115C0.960938 38.1282 3.1302 40.2488 5.80594 40.2488H36.1168C38.7935 40.2488 40.9609 38.1273 40.9609 35.5115V4.98697C40.9618 2.36934 38.7935 0.248779 36.1168 0.248779ZM37.9763 34.7515C37.9763 36.1765 36.796 37.3291 35.3406 37.3291H6.52695C5.07069 37.3291 3.89037 36.1748 3.89037 34.7515V5.80177C3.89037 4.37849 5.07069 3.22419 6.52695 3.22419H35.3397C36.796 3.22419 37.9754 4.37849 37.9754 5.80177L37.9763 34.7515Z" fill="white"/>
<path d="M35.3398 5.04273H6.527C6.09796 5.04273 5.74902 5.38223 5.74902 5.80268V34.752C5.74902 35.1698 6.09707 35.5119 6.527 35.5119H35.3398C35.7679 35.5119 36.1169 35.1707 36.1169 34.752V5.80181C36.1169 5.38223 35.7688 5.04273 35.3398 5.04273ZM27.5662 21.6336C25.8278 23.2362 23.2428 23.9561 20.2306 23.9561C19.5621 23.9561 18.9898 23.923 18.4824 23.8577V31.7636H13.4683V9.98368C15.0456 9.72166 17.2389 9.52493 20.3508 9.52493C23.4965 9.52493 25.7326 10.1143 27.2396 11.2929C28.6771 12.4045 29.6456 14.2378 29.6456 16.3966C29.6456 18.5581 28.9068 20.3914 27.5662 21.6336Z" fill="white"/>
</svg>
