<svg width="41" height="41" viewBox="0 0 41 41" fill="none" xmlns="http://www.w3.org/2000/svg">
<path d="M20.961 0.0739746C9.91607 0.0739746 0.960938 9.02907 0.960938 20.074C0.960938 31.1187 9.91607 40.074 20.961 40.074C32.006 40.074 40.9609 31.1186 40.9609 20.074C40.961 9.02907 32.006 0.0739746 20.961 0.0739746ZM31.5224 29.2562L29.921 30.8579C29.6351 31.1434 28.798 31.3215 28.7711 31.3215C23.7051 31.3657 18.8273 29.3758 15.2433 25.7916C11.6496 22.1958 9.65738 17.3006 9.71088 12.2175C9.71088 12.2152 9.89422 11.4021 10.1799 11.1191L11.7812 9.5176C12.3671 8.92891 13.4927 8.66288 14.2813 8.92668L14.6181 9.03905C15.4043 9.3026 16.2298 10.1719 16.447 10.9728L17.2525 13.9292C17.4697 14.7324 17.1768 15.8751 16.591 16.461L15.5217 17.5304C16.5715 21.4167 19.6208 24.4666 23.5078 25.5189L24.5766 24.4493C25.1653 23.8606 26.3076 23.5679 27.109 23.7848L30.065 24.5932C30.8661 24.8133 31.7352 25.6335 31.9987 26.4195L32.1111 26.7612C32.3722 27.5475 32.1083 28.6729 31.5224 29.2562Z" fill="white"/>
</svg>
