<svg width="40" height="40" viewBox="0 0 40 40" fill="none" xmlns="http://www.w3.org/2000/svg">
<path d="M38.6207 20C38.6207 30.2839 30.2839 38.6207 20 38.6207C9.71612 38.6207 1.3793 30.2839 1.3793 20C1.3793 9.71612 9.71612 1.3793 20 1.3793C30.2839 1.3793 38.6207 9.71612 38.6207 20Z" fill="black"/>
<path d="M12.4138 31.7242L13.1035 28.9655V24.8276C13.2574 23.3143 12.7553 21.8077 11.7241 20.6897C10.4758 19.1861 7.6896 15.262 9.38612 11.3241C10.5311 8.66212 12.8277 7.06898 17.2414 6.89656C21.7723 6.71741 25.0276 8.7517 25.0896 8.97934C25.0724 9.44506 24.9838 9.90572 24.8276 10.3448C25.0754 11.0237 25.3583 11.6888 25.6759 12.338L26.2413 15.7516C27.0208 16.3241 28.2206 17.1656 28.7655 17.6068C29.5242 18.2206 26.2069 18.6207 26.2069 18.6207C26.2069 18.6207 26.1517 20.0829 26.8966 20.6897C27.1932 20.9311 23.4621 21.3726 23.4483 21.3793C23.4483 21.3793 26.2069 23.4483 26.8966 23.4483L26.2069 24.1379C25.5173 24.8276 26.8413 26.5932 26.2069 26.8966C25.5725 27.2 24.1517 26.938 23.4483 26.8966C22.7448 26.8551 23.2621 32.4205 23.4483 33.1035L12.4138 31.7242Z" fill="white"/>
<path d="M20 0C8.9544 0 0 8.9544 0 20C0 31.0456 8.9544 40 20 40C31.0456 40 40 31.0456 40 20C39.9875 8.95946 31.0405 0.0124596 20 0ZM20 2.75862C24.0968 2.75525 28.0597 4.21707 31.1725 6.88072L6.88072 31.1725C2.51448 26.0577 1.52344 18.8702 4.34267 12.765C7.16157 6.65948 13.2752 2.75222 20 2.75862V2.75862ZM20 37.2414C15.9045 37.2441 11.943 35.7819 8.83116 33.1193L33.1193 8.83116C37.4832 13.9456 38.4729 21.1318 35.6543 27.236C32.8354 33.3398 26.7235 37.2464 20 37.2414V37.2414Z" fill="#C1272D"/>
<path d="M33.7931 23.4483H30.3448C29.964 23.4483 29.6552 23.1395 29.6552 22.7586C29.6552 22.3778 29.964 22.069 30.3448 22.069H33.7931C34.174 22.069 34.4828 22.3778 34.4828 22.7586C34.4828 23.1395 34.174 23.4483 33.7931 23.4483Z" fill="white"/>
<path d="M33.1035 27.5862C32.9971 27.5872 32.8917 27.5637 32.796 27.5172L30.0374 26.1379C29.6963 25.9678 29.5579 25.5533 29.7283 25.2125C29.8986 24.8714 30.3128 24.7333 30.654 24.9034L33.4126 26.2827C33.6951 26.4275 33.8423 26.7467 33.7692 27.0555C33.6958 27.3646 33.421 27.5839 33.1035 27.5862V27.5862Z" fill="white"/>
<path d="M30.3448 20.6897C29.9906 20.69 29.6936 20.4219 29.6579 20.0694C29.6225 19.7168 29.8596 19.3945 30.2068 19.3242L33.655 18.6345C34.0218 18.5742 34.3703 18.8153 34.4434 19.1797C34.5161 19.5441 34.2871 19.9007 33.9255 19.9862L30.4772 20.6759C30.4337 20.6849 30.3893 20.6897 30.3448 20.6897Z" fill="white"/>
</svg>
