<svg width="41" height="40" viewBox="0 0 41 40" fill="none" xmlns="http://www.w3.org/2000/svg">
<path d="M20.7777 -0.00012207C9.77771 -0.00012207 0.77771 1.05251 0.77771 8.42093V28.4209C0.77771 32.4209 4.77771 35.7894 9.52771 35.7894L5.77771 38.9472V39.9999H35.7777V38.9472L32.0277 35.7894C36.7777 35.7894 40.7777 32.4209 40.7777 28.4209V8.42093C40.7777 1.05251 31.7777 -0.00012207 20.7777 -0.00012207ZM9.52771 31.5788C7.52771 31.5788 5.77771 30.1051 5.77771 28.4209C5.77771 26.7367 7.52771 25.263 9.52771 25.263C11.5277 25.263 13.2777 26.7367 13.2777 28.4209C13.2777 30.1051 11.5277 31.5788 9.52771 31.5788ZM18.2777 18.9472H5.77771V8.42093H18.2777V18.9472ZM32.0277 31.5788C30.0277 31.5788 28.2777 30.1051 28.2777 28.4209C28.2777 26.7367 30.0277 25.263 32.0277 25.263C34.0277 25.263 35.7777 26.7367 35.7777 28.4209C35.7777 30.1051 34.0277 31.5788 32.0277 31.5788ZM35.7777 18.9472H23.2777V8.42093H35.7777V18.9472Z" fill="white"/>
</svg>
