<svg width="40" height="40" viewBox="0 0 40 40" fill="none" xmlns="http://www.w3.org/2000/svg">
<path d="M25.4982 17.1065C25.2648 16.4128 24.551 15.9567 23.7709 15.9567H23.7664L20.2014 15.9649L16.6345 9.46222C16.2758 8.80834 15.5299 8.54472 14.7849 8.55381C14.7228 8.55462 8.08063 8.55435 8.0217 8.55327C7.2425 8.5393 6.46811 8.83478 6.12777 9.52989L0.164701 21.705C-0.25247 22.5566 0.150151 23.5621 1.06409 23.9509C1.977 24.3395 3.05653 23.965 3.47399 23.1127L6.32944 17.2827C6.32944 18.7916 6.28783 36.4573 6.28783 37.966C6.28783 39.1219 7.32253 40.0529 8.57608 39.9977C9.7499 39.9461 10.6531 39.0038 10.6531 37.9085V26.7402C10.6531 26.3561 10.9872 26.0448 11.3992 26.0448C11.8113 26.0448 12.1454 26.3561 12.1454 26.7402V37.9085C12.1454 39.0038 13.0486 39.9461 14.2224 39.9977C15.4758 40.0527 16.5106 39.1219 16.5106 37.966C16.5106 23.1564 16.4687 16.6075 16.4687 16.6075L17.4706 18.434C17.7815 19.0008 18.407 19.3576 19.0901 19.3576H19.0944L23.7754 19.347C24.9681 19.3443 25.8901 18.2719 25.4982 17.1065Z" fill="black"/>
<path d="M11.3991 7.79415C13.7083 7.79415 15.5814 6.05054 15.5814 3.89714C15.5814 1.74333 13.7083 0 11.3991 0C9.08914 0 7.21573 1.74333 7.21573 3.89701C7.21573 6.05041 9.08914 7.79415 11.3991 7.79415Z" fill="black"/>
<path d="M38.9088 23.725H23.7708C23.1679 23.725 22.6794 24.1802 22.6794 24.742C22.6794 25.3037 23.1679 25.759 23.7708 25.759H23.908L25.5618 38.0111C25.6919 38.9738 26.5703 39.6959 27.6114 39.6959H35.0681C36.1093 39.6959 36.9877 38.9738 37.1176 38.0111L38.7715 25.759H38.9087C39.5115 25.759 40 25.3037 40 24.742C40.0001 24.1802 39.5117 23.725 38.9088 23.725ZM29.0908 31.8618C29.166 32.4191 28.7422 32.9278 28.1443 32.9979C28.098 33.0033 28.052 33.006 28.0066 33.006C27.4646 33.006 26.9948 32.6301 26.9252 32.1159L26.0673 25.7592H28.2671L29.0908 31.8618Z" fill="black"/>
<path d="M27.845 21.9675C27.868 22.1471 27.9839 22.3047 28.1552 22.3894C28.3266 22.4743 28.5315 22.4756 28.7039 22.3928L31.3439 21.1275C31.5808 21.014 31.7072 20.767 31.6528 20.524L31.126 18.1706C31.0901 18.0103 30.9798 17.8734 30.825 17.7963C30.6702 17.7193 30.4865 17.7102 30.3239 17.7717L27.8658 18.7004C27.6183 18.7938 27.4687 19.0303 27.5003 19.2774L27.845 21.9675Z" fill="black"/>
</svg>
